<svg xmlns="http://www.w3.org/2000/svg" xmlns:xlink="http://www.w3.org/1999/xlink" version="1.1" x="0px" y="0px" viewBox="0 0 512 640" enable-background="new 0 0 512 512" xml:space="preserve"><g><path d="M495.9,95.5h-35v-6.9c0-7.8-6.3-14.1-14.1-14.1h-8v0c0-7.8-6.3-14.1-14.1-14.1c-7.8,0-14.1,6.3-14.1,14.1v0H36.1   c-6.6,0-12.4,4.6-13.8,11.1L2.6,177.4c-0.9,4.2-2.8,16.8,13.8,17.1h14.4l14.4,34.4c-7.2,36.6-30.6,171.9,6.9,209   c9.4,9.3,28.1,21.8,117.5,7.1c16.8-2.8,28.8-18.4,27.3-35.4c0-0.3-8.7-56.9-11-88.9h59.4c20.5,0,38.5-14.6,42.7-34.7l9.3-44.4h86.6   c4.8,0,9.3-2.5,11.9-6.6l25.4-40.4h25.6c7.8,0,14.1-6.3,14.1-14.1v-6.9h35c7.8,0,14.1-6.3,14.1-14.1v-49.7   C510,101.8,503.7,95.5,495.9,95.5z M164.8,417c-80,17.2-92.4,1.2-92.9,0.7c-19.6-19.4-12.4-111-0.4-176.3h81.4   c1.8,58.8,7.1,116.2,15.8,170.9C168.8,414.6,167.1,416.5,164.8,417z M260.3,280.1c-1.5,7.1-7.8,12.2-15.1,12.2h-61.5   c-1.1-16.8-2-33.8-2.5-50.9h3.1c4,9.8,11.4,24.5,22,35c5.4,5.3,14.4,5.1,19.9-0.3c5.6-5.4,5.3-14.5-0.3-19.9   c-4-3.9-7.5-9.3-10.4-14.7h52.8L260.3,280.1z M376.1,213.2H69.2l-7.9-18.8h326.6L376.1,213.2z M432.7,166.2H33.8l13.7-63.5h385.2   V166.2z M481.8,145.2h-20.9v-21.5h20.9V145.2z"/><path d="M111.4,148.6h45.4c7.8,0,14.1-6.3,14.1-14.1c0-7.8-6.3-14.1-14.1-14.1h-45.4c-7.8,0-14.1,6.3-14.1,14.1   C97.3,142.3,103.6,148.6,111.4,148.6z"/></g><text x="0" y="527" fill="#000000" font-size="5px" font-weight="bold" font-family="'Helvetica Neue', Helvetica, Arial-Unicode, Arial, Sans-serif">Created by Icon Fair</text><text x="0" y="532" fill="#000000" font-size="5px" font-weight="bold" font-family="'Helvetica Neue', Helvetica, Arial-Unicode, Arial, Sans-serif">from the Noun Project</text></svg>